PathFileType	4	(X/Y/Z)	/Users/itak/Documents/Research/Walk-IL/dataset/trc/00549_00009.trc
DataRate	CameraRate	NumFrames	NumMarkers	Units	OrigDataRate	OrigDataStartFrame	OrigNumFrames
100.000000	100.000000	4	53	mm	100.000000	208	555
Frame#	Time	RPSI			LPSI			L3			STRN			T10			C7			CLAV			RBAK			LBAK			LSHO			LUPA			LAEL			LAOL			LWTS			LWPS			LFRA			LIFD			LHPS			LHTS			RSHO			RUPA			RAEL			RAOL			RWTS			RWPS			RFRA			RIFD			RHTS			RHPS			RBHD			LFHD			RFHD			LBHD			LHIP			RHIP			RASI			LASI			LKNE			LTHI			LANK			LTIP			LTOE			LMT1			LMT5			LHEE			RKNE			RTHI			RANK			RTIP			RTOE			RMT1			RMT5			RHEE			
		X1	Y1	Z1	X2	Y2	Z2	X3	Y3	Z3	X4	Y4	Z4	X5	Y5	Z5	X6	Y6	Z6	X7	Y7	Z7	X8	Y8	Z8	X9	Y9	Z9	X10	Y10	Z10	X11	Y11	Z11	X12	Y12	Z12	X13	Y13	Z13	X14	Y14	Z14	X15	Y15	Z15	X16	Y16	Z16	X17	Y17	Z17	X18	Y18	Z18	X19	Y19	Z19	X20	Y20	Z20	X21	Y21	Z21	X22	Y22	Z22	X23	Y23	Z23	X24	Y24	Z24	X25	Y25	Z25	X26	Y26	Z26	X27	Y27	Z27	X28	Y28	Z28	X29	Y29	Z29	X30	Y30	Z30	X31	Y31	Z31	X32	Y32	Z32	X33	Y33	Z33	X34	Y34	Z34	X35	Y35	Z35	X36	Y36	Z36	X37	Y37	Z37	X38	Y38	Z38	X39	Y39	Z39	X40	Y40	Z40	X41	Y41	Z41	X42	Y42	Z42	X43	Y43	Z43	X44	Y44	Z44	X45	Y45	Z45	X46	Y46	Z46	X47	Y47	Z47	X48	Y48	Z48	X49	Y49	Z49	X50	Y50	Z50	X51	Y51	Z51	X52	Y52	Z52	X53	Y53	Z53	

209	2.08	-326.1297607421875	1007.340148925781	332.7985229492188	-330.3046569824219	1003.6357421875	199.2662963867188	-320.9212036132812	1105.167114257812	266.8575439453125	-72.18657684326172	1281.089477539062	249.8300018310547	-318.1358947753906	1231.651245117188	269.7258605957031	-251.4399261474609	1500.008178710938	292.1353149414062	-85.50551605224609	1392.601928710938	254.9354705810547	-317.2304992675781	1377.328735351562	382.7331848144531	-299.6809387207031	1451.248291015625	205.5972290039062	-213.2597961425781	1476.168212890625	112.5685958862305	-247.536376953125	1355.411743164062	30.37652397155762	-257.8716125488281	1135.78125	-1.161977171897888	-333.9758605957031	1133.455444335938	65.10609436035156	-172.7998962402344	887.204833984375	21.78438186645508	-233.0141296386719	867.8703002929688	-39.1363639831543	-242.4860076904297	1048.384887695312	-14.41641139984131	-184.2586517333984	717.1416015625	13.8503942489624	-225.0369415283203	807.8324584960938	-33.87712478637695	-164.7466278076172	809.955810546875	-1.953697562217712	-174.350830078125	1454.102294921875	435.6837158203125	-184.8600158691406	1390.38623046875	504.769775390625	-177.0012512207031	1103.595092773438	557.3306884765625	-235.4903106689453	1083.6748046875	539.0845336914062	-39.14358139038086	889.4638671875	504.1287841796875	-72.63028717041016	868.2012329101562	575.9482421875	-162.79345703125	1048.86669921875	565.1641235351562	-15.08080291748047	716.8732299804688	512.213623046875	-3.188441514968872	800.364013671875	516.9508666992188	-52.10344314575195	794.9508056640625	572.1737670898438	-170.9480133056641	1671.282104492188	347.9330444335938	-20.35873413085938	1700.41162109375	207.8452453613281	-32.40073394775391	1693.256225585938	351.1830139160156	-150.3911743164062	1677.587890625	183.6164245605469	-199.6588745117188	930.72412109375	66.04427337646484	-202.8633575439453	934.673828125	454.028076171875	-114.5012741088867	962.6031494140625	395.2529907226562	-125.1327819824219	958.3431396484375	119.9010238647461	4.653945922851562	527.159912109375	114.0513916015625	-70.03289031982422	679.01220703125	76.83957672119141	-58.03765106201172	41.58829498291016	122.3842468261719	-48.71241760253906	273.7257080078125	111.2203369140625	149.4522094726562	72.77916717529297	152.6090240478516	84.67392730712891	66.96736145019531	196.0298767089844	59.24268341064453	46.94040679931641	94.99629211425781	-119.2222671508789	49.20840454101562	182.8230590820312	-215.9962005615234	490.3463439941406	385.9803771972656	-173.5165710449219	777.1577758789062	440.0733032226562	-344.3247680664062	36.60516357421875	337.4425048828125	-231.9533843994141	348.2463684082031	363.3899841308594	-122.2743377685547	41.01291656494141	306.5464477539062	-184.3573150634766	42.05319976806641	263.1626892089844	-212.0177612304688	37.16403198242188	364.9457397460938	-396.9158630371094	33.45140075683594	279.0659790039062	
210	2.09	-319.205322265625	1006.498474121094	332.5523986816406	-323.1014099121094	1002.614135742188	198.9895782470703	-314.1876525878906	1104.311645507812	266.5579833984375	-65.04006958007812	1280.070190429688	249.7833251953125	-311.2715148925781	1230.852905273438	269.4147033691406	-244.1620635986328	1499.097412109375	292.0053100585938	-78.30306243896484	1391.59521484375	254.8529510498047	-310.1165161132812	1376.5068359375	382.5755615234375	-292.4140319824219	1450.3671875	205.4614868164062	-205.9352416992188	1475.18212890625	112.4086151123047	-240.3278198242188	1354.352172851562	30.43022346496582	-251.2246246337891	1134.715942382812	-0.5835634469985962	-327.3092041015625	1132.723510742188	65.7398681640625	-167.3043518066406	885.6448974609375	22.97030067443848	-227.4284210205078	866.5555419921875	-38.15295028686523	-236.2888793945312	1047.136840820312	-13.68322372436523	-179.9005889892578	715.6095581054688	15.40569686889648	-219.9864501953125	806.4386596679688	-32.60598754882812	-159.7640228271484	808.248779296875	-0.5848085880279541	-167.15380859375	1453.150024414062	435.5613098144531	-177.6765594482422	1389.35009765625	504.5601196289062	-169.2083129882812	1102.624389648438	557.1353759765625	-227.5967712402344	1082.596557617188	538.9905395507812	-30.84273529052734	888.8440551757812	503.9122924804688	-64.30782318115234	867.4979248046875	575.8241577148438	-154.8295745849609	1047.942138671875	565.0110473632812	-6.376932621002197	716.297607421875	511.9750061035156	5.335915565490723	799.7699584960938	516.74072265625	-43.51133728027344	794.2844848632812	571.9599609375	-163.4620666503906	1670.32470703125	347.8675231933594	-13.04047679901123	1699.380004882812	207.5488739013672	-24.87605285644531	1692.173828125	350.9655456542969	-143.0992584228516	1676.6015625	183.5279541015625	-192.20654296875	929.731689453125	65.88270568847656	-196.3795776367188	933.8748779296875	454.0359802246094	-107.7968521118164	961.59716796875	395.357421875	-117.7875900268555	957.2799682617188	119.9646987915039	11.97158622741699	526.7401123046875	114.5742645263672	-63.14556884765625	678.014404296875	76.73017883300781	-30.6761646270752	39.42399978637695	124.0195465087891	-31.3355541229248	271.9250183105469	112.2304763793945	175.8847045898438	76.40605926513672	154.2938995361328	111.2038497924805	69.28904724121094	197.6607666015625	86.53447723388672	47.72582244873047	96.79038238525391	-92.04130554199219	45.56804656982422	184.4994201660156	-213.1029663085938	489.8834838867188	385.7381286621094	-167.2452850341797	776.2547607421875	439.358642578125	-344.3251647949219	36.82456207275391	337.3716735839844	-230.1113433837891	347.9055480957031	363.263427734375	-122.1846618652344	40.94836044311523	306.6571044921875	-184.3176727294922	41.89469146728516	263.1127624511719	-211.9502410888672	37.06891250610352	365.0497436523438	-396.8558044433594	33.78852081298828	278.9836120605469	
211	2.1	-312.1458740234375	1005.521301269531	332.2586975097656	-315.7603759765625	1001.467163085938	198.6912994384766	-307.3692932128906	1103.357788085938	266.2120971679688	-57.81964492797852	1278.98046875	249.7000274658203	-304.3293151855469	1229.9541015625	269.0408325195312	-236.8246154785156	1498.107055664062	291.7716064453125	-71.04438018798828	1390.510620117188	254.7418975830078	-302.9620971679688	1375.59423828125	382.2992858886719	-285.0613708496094	1449.384765625	205.2142639160156	-198.5001373291016	1474.1025390625	112.1570129394531	-232.9864959716797	1353.196899414062	30.39810752868652	-244.4606018066406	1133.549438476562	-0.07398036122322083	-320.53369140625	1131.904541015625	66.28609466552734	-161.7083892822266	883.9916381835938	24.13613510131836	-221.7893676757812	865.1318359375	-37.15246963500977	-229.9645385742188	1045.790283203125	-13.00707054138184	-175.4627532958984	713.9812622070312	16.97850799560547	-214.8362426757812	804.9483032226562	-31.35289573669434	-154.6815338134766	806.4429931640625	0.7766176462173462	-159.9391326904297	1452.127807617188	435.3565979003906	-170.5327606201172	1388.22998046875	504.2735900878906	-161.5261077880859	1101.574951171875	556.8804931640625	-219.7671966552734	1081.44482421875	538.8101806640625	-22.61101150512695	888.1446533203125	503.6636962890625	-56.10316467285156	866.70947265625	575.677001953125	-146.9759216308594	1046.926513671875	564.7894287109375	2.23093581199646	715.632080078125	511.73046875	13.78446483612061	799.1156005859375	516.5076904296875	-35.025146484375	793.5392456054688	571.7215576171875	-155.9649353027344	1669.276489257812	347.7350463867188	-5.650405406951904	1698.269287109375	207.2291412353516	-17.30487060546875	1691.011352539062	350.7212219238281	-135.7140045166016	1675.548828125	183.3838348388672	-184.6159973144531	928.581298828125	65.76673126220703	-189.7615509033203	933.0421142578125	454.0122680664062	-100.9585266113281	960.5418090820312	395.4678955078125	-110.2947082519531	956.0983276367188	120.0425567626953	19.2281551361084	526.0613403320312	115.0071868896484	-56.24123001098633	676.790283203125	76.55294799804688	-3.921259880065918	37.8875732421875	125.5736312866211	-14.31058788299561	270.3282165527344	113.181526184082	201.4746551513672	80.41912078857422	156.0426940917969	136.9184875488281	72.01589202880859	199.3074951171875	113.129508972168	48.99357604980469	98.57071685791016	-65.51030731201172	42.64511489868164	186.0554046630859	-210.1516571044922	489.431884765625	385.5143127441406	-160.9235229492188	775.3265380859375	438.7279052734375	-344.31884765625	37.0705451965332	337.3023986816406	-228.2424621582031	347.579345703125	363.1516418457031	-122.1091995239258	40.87283706665039	306.7429809570312	-184.2782440185547	41.74210357666016	263.0810546875	-211.8972015380859	36.97565460205078	365.1657409667969	-396.7714538574219	34.13580322265625	278.8774719238281	
212	2.11	-304.9587707519531	1004.412719726562	331.8979797363281	-308.2775573730469	1000.196716308594	198.3614959716797	-300.4479370117188	1102.30517578125	265.8105163574219	-50.52703857421875	1277.820556640625	249.5862884521484	-297.3027648925781	1228.952392578125	268.6005554199219	-229.4299621582031	1497.036010742188	291.4322204589844	-63.72553634643555	1389.350952148438	254.5988159179688	-295.7688598632812	1374.59228515625	381.9072265625	-277.6207885742188	1448.300537109375	204.8537139892578	-190.9583892822266	1472.926635742188	111.8157119750977	-225.5160522460938	1351.943359375	30.27928924560547	-237.5808868408203	1132.274536132812	0.3600305914878845	-313.6498413085938	1130.993408203125	66.73406982421875	-156.0022735595703	882.247314453125	25.26571846008301	-216.0847778320312	863.5968627929688	-36.14302444458008	-223.5077819824219	1044.34375	-12.38977527618408	-170.9289703369141	712.2576904296875	18.56404495239258	-209.5727996826172	803.3621826171875	-30.12701225280762	-149.4850311279297	804.5438842773438	2.120999097824097	-152.7042388916016	1451.031616210938	435.0710754394531	-163.4192962646484	1387.031372070312	503.9102783203125	-153.9430999755859	1100.447509765625	556.5751342773438	-212.0059204101562	1080.219604492188	538.5479125976562	-14.44956111907959	887.3623046875	503.3907775878906	-47.98983001708984	865.8355712890625	575.490234375	-139.2302398681641	1045.818969726562	564.5001220703125	10.74666881561279	714.8782958984375	511.4827880859375	22.1528377532959	798.396728515625	516.24951171875	-26.6481761932373	792.7130737304688	571.46240234375	-148.4576873779297	1668.138793945312	347.5302124023438	1.80881404876709	1697.080932617188	206.8850402832031	-9.692025184631348	1689.7763671875	350.4451599121094	-128.243896484375	1674.429077148438	183.1823883056641	-176.8721771240234	927.2824096679688	65.69387817382812	-183.0162353515625	932.1707763671875	453.9542846679688	-93.98556518554688	959.4368286132812	395.5901184082031	-102.6448974609375	954.8118896484375	120.1370620727539	26.49964904785156	525.1506958007812	115.3808212280273	-49.25421524047852	675.3607788085938	76.31939697265625	22.11423873901367	36.93107604980469	127.0149078369141	2.327727079391479	268.9237976074219	114.0743713378906	226.1096801757812	84.91779327392578	157.8150634765625	161.7032623291016	75.16683197021484	200.9442901611328	138.9072875976562	50.80533218383789	100.298454284668	-39.74118804931641	40.31805801391602	187.4557647705078	-207.1431732177734	488.9914245605469	385.3258972167969	-154.6627197265625	774.37548828125	438.2608032226562	-344.2999267578125	37.34287643432617	337.23291015625	-226.3395690917969	347.2643432617188	363.0683898925781	-122.0427856445312	40.78097534179688	306.7977600097656	-184.2373504638672	41.61764907836914	263.0836181640625	-211.8638610839844	36.88845062255859	365.2919311523438	-396.66552734375	34.49905776977539	278.7437744140625	
